{
  "accessors": [
    {
      "bufferView": 2,
      "componentType": 5126,
      "count": 12791,
      "max": [
        14.863040924072266,
        9.898573875427246,
        15.226276397705078
      ],
      "min": [
        -14.86303997039795,
        -10.141273498535156,
        -19.973724365234375
      ],
      "type": "VEC3"
    },
    {
      "bufferView": 2,
      "byteOffset": 153492,
      "componentType": 5126,
      "count": 12791,
      "max": [
        1.0,
        1.0,
        1.0
      ],
      "min": [
        -1.0,
        -1.0,
        -1.0
      ],
      "type": "VEC3"
    },
    {
      "bufferView": 1,
      "componentType": 5126,
      "count": 12791,
      "max": [
        1.0,
        0.9942618012428284
      ],
      "min": [
        0.0,
        0.0
      ],
      "type": "VEC2"
    },
    {
      "bufferView": 0,
      "componentType": 5125,
      "count": 62646,
      "type": "SCALAR"
    },
    {
      "bufferView": 2,
      "byteOffset": 306984,
      "componentType": 5126,
      "count": 4,
      "max": [
        1.3138903379440308,
        7.4406418800354,
        14.225456237792969
      ],
      "min": [
        -1.3138879537582397,
        5.07564115524292,
        14.225456237792969
      ],
      "type": "VEC3"
    },
    {
      "bufferView": 2,
      "byteOffset": 307032,
      "componentType": 5126,
      "count": 4,
      "max": [
        0.0,
        0.0,
        1.0
      ],
      "min": [
        0.0,
        0.0,
        1.0
      ],
      "type": "VEC3"
    },
    {
      "bufferView": 1,
      "byteOffset": 102328,
      "componentType": 5126,
      "count": 4,
      "max": [
        0.8345316052436829,
        0.3968600332736969
      ],
      "min": [
        0.8051812052726746,
        0.364096462726593
      ],
      "type": "VEC2"
    },
    {
      "bufferView": 0,
      "byteOffset": 250584,
      "componentType": 5125,
      "count": 6,
      "type": "SCALAR"
    },
    {
      "bufferView": 2,
      "byteOffset": 307080,
      "componentType": 5126,
      "count": 534,
      "max": [
        5.254587650299072,
        -6.29858922958374,
        1.3543615341186523
      ],
      "min": [
        -5.254584789276123,
        -15.11170768737793,
        -0.2201700210571289
      ],
      "type": "VEC3"
    },
    {
      "bufferView": 2,
      "byteOffset": 313488,
      "componentType": 5126,
      "count": 534,
      "max": [
        0.9999505281448364,
        0.13288113474845886,
        0.9976310133934021
      ],
      "min": [
        -0.9999505877494812,
        -0.505893349647522,
        -0.976277768611908
      ],
      "type": "VEC3"
    },
    {
      "bufferView": 1,
      "byteOffset": 102360,
      "componentType": 5126,
      "count": 534,
      "max": [
        0.38530436158180237,
        0.9816235303878784
      ],
      "min": [
        0.0,
        0.15994417667388916
      ],
      "type": "VEC2"
    },
    {
      "bufferView": 0,
      "byteOffset": 250608,
      "componentType": 5125,
      "count": 2496,
      "type": "SCALAR"
    },
    {
      "bufferView": 2,
      "byteOffset": 319896,
      "componentType": 5126,
      "count": 215,
      "max": [
        5.254944801330566,
        3.6636016368865967,
        14.442601203918457
      ],
      "min": [
        -5.254941463470459,
        0.3535304069519043,
        14.162785530090332
      ],
      "type": "VEC3"
    },
    {
      "bufferView": 2,
      "byteOffset": 322476,
      "componentType": 5126,
      "count": 215,
      "max": [
        0.5684374570846558,
        0.4978612959384918,
        1.0
      ],
      "min": [
        -0.5684478282928467,
        -0.6904494762420654,
        0.7233806252479553
      ],
      "type": "VEC3"
    },
    {
      "bufferView": 1,
      "byteOffset": 106632,
      "componentType": 5126,
      "count": 215,
      "max": [
        0.8161230087280273,
        0.7785922288894653
      ],
      "min": [
        0.5777886509895325,
        0.4905259907245636
      ],
      "type": "VEC2"
    },
    {
      "bufferView": 0,
      "byteOffset": 260592,
      "componentType": 5125,
      "count": 1152,
      "type": "SCALAR"
    },
    {
      "bufferView": 2,
      "byteOffset": 325056,
      "componentType": 5126,
      "count": 165,
      "max": [
        5.070870876312256,
        -0.057622432708740234,
        13.998543739318848
      ],
      "min": [
        -5.070868015289307,
        -3.817483425140381,
        13.958897590637207
      ],
      "type": "VEC3"
    },
    {
      "bufferView": 2,
      "byteOffset": 327036,
      "componentType": 5126,
      "count": 165,
      "max": [
        0.32935044169425964,
        0.386002779006958,
        1.0
      ],
      "min": [
        -0.3293735086917877,
        -0.3857360780239105,
        0.9224976897239685
      ],
      "type": "VEC3"
    },
    {
      "bufferView": 1,
      "byteOffset": 108352,
      "componentType": 5126,
      "count": 165,
      "max": [
        0.5374179482460022,
        0.7851026654243469
      ],
      "min": [
        0.4907572269439697,
        0.6586539149284363
      ],
      "type": "VEC2"
    },
    {
      "bufferView": 0,
      "byteOffset": 265200,
      "componentType": 5125,
      "count": 768,
      "type": "SCALAR"
    },
    {
      "bufferView": 2,
      "byteOffset": 329016,
      "componentType": 5126,
      "count": 366,
      "max": [
        3.8205301761627197,
        -2.6844563484191895,
        -4.574254035949707
      ],
      "min": [
        -3.8205275535583496,
        -7.955856800079346,
        -19.61559295654297
      ],
      "type": "VEC3"
    },
    {
      "bufferView": 2,
      "byteOffset": 333408,
      "componentType": 5126,
      "count": 366,
      "max": [
        0.9992713332176208,
        0.7210139632225037,
        0.3640962541103363
      ],
      "min": [
        -0.9992716312408447,
        -0.9607645869255066,
        -0.33927544951438904
      ],
      "type": "VEC3"
    },
    {
      "bufferView": 1,
      "byteOffset": 109672,
      "componentType": 5126,
      "count": 366,
      "max": [
        0.9975875020027161,
        0.9266470670700073
      ],
      "min": [
        0.07486038655042648,
        0.004341100342571735
      ],
      "type": "VEC2"
    },
    {
      "bufferView": 0,
      "byteOffset": 268272,
      "componentType": 5125,
      "count": 1536,
      "type": "SCALAR"
    },
    {
      "bufferView": 2,
      "byteOffset": 337800,
      "componentType": 5126,
      "count": 64,
      "max": [
        6.978037357330322,
        6.523740768432617,
        14.919551849365234
      ],
      "min": [
        -6.978034496307373,
        0.31398677825927734,
        14.919551849365234
      ],
      "type": "VEC3"
    },
    {
      "bufferView": 2,
      "byteOffset": 338568,
      "componentType": 5126,
      "count": 64,
      "max": [
        1.2576363950245195e-08,
        0.0,
        1.0
      ],
      "min": [
        -2.0122178057135898e-07,
        0.0,
        1.0
      ],
      "type": "VEC3"
    },
    {
      "bufferView": 1,
      "byteOffset": 112600,
      "componentType": 5126,
      "count": 64,
      "max": [
        0.9103888869285583,
        0.9312348961830139
      ],
      "min": [
        0.6518814563751221,
        0.589984118938446
      ],
      "type": "VEC2"
    },
    {
      "bufferView": 0,
      "byteOffset": 274416,
      "componentType": 5125,
      "count": 180,
      "type": "SCALAR"
    },
    {
      "bufferView": 2,
      "byteOffset": 339336,
      "componentType": 5126,
      "count": 263,
      "max": [
        4.494388103485107,
        0.1623077392578125,
        10.224675178527832
      ],
      "min": [
        -4.494384765625,
        -14.094636917114258,
        0.7048444747924805
      ],
      "type": "VEC3"
    },
    {
      "bufferView": 2,
      "byteOffset": 342492,
      "componentType": 5126,
      "count": 263,
      "max": [
        0.8294396996498108,
        0.9999269247055054,
        0.9999969005584717
      ],
      "min": [
        -0.8294394612312317,
        -0.9998679757118225,
        -0.999963104724884
      ],
      "type": "VEC3"
    },
    {
      "bufferView": 1,
      "byteOffset": 113112,
      "componentType": 5126,
      "count": 263,
      "max": [
        0.9976765513420105,
        1.0
      ],
      "min": [
        0.1926327347755432,
        0.42558926343917847
      ],
      "type": "VEC2"
    },
    {
      "bufferView": 0,
      "byteOffset": 275136,
      "componentType": 5125,
      "count": 1104,
      "type": "SCALAR"
    }
  ],
  "asset": {
    "extras": {
      "author": "dylanheyes (https://sketchfab.com/dylanheyes)",
      "license": "CC-BY-4.0 (http://creativecommons.org/licenses/by/4.0/)",
      "source": "https://sketchfab.com/3d-models/airspeeder-b9750cb9f120484a9c0bd9e85e0af6e6",
      "title": "Airspeeder"
    },
    "generator": "Sketchfab-15.17.0",
    "version": "2.0"
  },
  "bufferViews": [
    {
      "buffer": 0,
      "byteLength": 279552,
      "name": "floatBufferViews",
      "target": 34963
    },
    {
      "buffer": 0,
      "byteLength": 115216,
      "byteOffset": 279552,
      "byteStride": 8,
      "name": "floatBufferViews",
      "target": 34962
    },
    {
      "buffer": 0,
      "byteLength": 345648,
      "byteOffset": 394768,
      "byteStride": 12,
      "name": "floatBufferViews",
      "target": 34962
    }
  ],
  "buffers": [
    {
      "byteLength": 740416,
      "uri": "scene.bin"
    }
  ],
  "extensionsUsed": [
    "KHR_materials_transmission",
    "KHR_materials_emissive_strength"
  ],
  "materials": [
    {
      "doubleSided": true,
      "name": "Body",
      "pbrMetallicRoughness": {
        "baseColorFactor": [
          0.010437313622138842,
          0.010437313622138842,
          0.010437313622138842,
          1.0
        ],
        "roughnessFactor": 0.0
      }
    },
    {
      "doubleSided": true,
      "name": "PlateBackground",
      "pbrMetallicRoughness": {
        "baseColorFactor": [
          0.137392,
          0.107917,
          0.104081,
          1.0
        ],
        "metallicFactor": 0.0,
        "roughnessFactor": 0.9745297488837165
      }
    },
    {
      "alphaMode": "BLEND",
      "doubleSided": true,
      "extensions": {
        "KHR_materials_transmission": {
          "transmissionFactor": 0.9413988257651362
        }
      },
      "name": "Window",
      "pbrMetallicRoughness": {
        "baseColorFactor": [
          0.5305518575689003,
          0.5305518575689003,
          0.5305518575689003,
          0.25
        ],
        "metallicFactor": 0.0,
        "roughnessFactor": 0.18064665651792797
      }
    },
    {
      "doubleSided": true,
      "name": "Chrome",
      "pbrMetallicRoughness": {
        "baseColorFactor": [
          0.342775,
          0.342775,
          0.342775,
          1.0
        ],
        "roughnessFactor": 0.0
      }
    },
    {
      "doubleSided": true,
      "emissiveFactor": [
        0.9966678442765899,
        0.02805742009862736,
        0.02805742009862736
      ],
      "extensions": {
        "KHR_materials_emissive_strength": {
          "emissiveStrength": 10.0
        }
      },
      "name": "BrakeLights",
      "pbrMetallicRoughness": {
        "baseColorFactor": [
          0.7999999999999999,
          0.008670059999999986,
          0.0,
          1.0
        ],
        "metallicFactor": 0.0,
        "roughnessFactor": 0.9605824087894894
      }
    },
    {
      "doubleSided": true,
      "emissiveFactor": [
        1.0,
        1.0,
        1.0
      ],
      "name": "Headlights",
      "pbrMetallicRoughness": {
        "baseColorFactor": [
          0.8,
          0.8,
          0.8,
          1.0
        ],
        "metallicFactor": 0.0,
        "roughnessFactor": 0.8211145618000169
      }
    },
    {
      "doubleSided": true,
      "emissiveFactor": [
        0.3928910951019572,
        0.043685523827482524,
        0.009672000584064916
      ],
      "extensions": {
        "KHR_materials_emissive_strength": {
          "emissiveStrength": 10.0
        }
      },
      "name": "Engine",
      "pbrMetallicRoughness": {
        "baseColorFactor": [
          0.8,
          0.8,
          0.8,
          1.0
        ],
        "metallicFactor": 0.0,
        "roughnessFactor": 0.8211145618000169
      }
    },
    {
      "doubleSided": true,
      "name": "Seat",
      "pbrMetallicRoughness": {
        "baseColorFactor": [
          0.020791599999999997,
          0.0015698699999999993,
          0.0,
          1.0
        ],
        "metallicFactor": 0.49447789667437864
      }
    }
  ],
  "meshes": [
    {
      "name": "Airspeeder_Body_0",
      "primitives": [
        {
          "attributes": {
            "NORMAL": 1,
            "POSITION": 0,
            "TEXCOORD_0": 2
          },
          "indices": 3,
          "material": 0,
          "mode": 4
        }
      ]
    },
    {
      "name": "Airspeeder_PlateBackground_0",
      "primitives": [
        {
          "attributes": {
            "NORMAL": 5,
            "POSITION": 4,
            "TEXCOORD_0": 6
          },
          "indices": 7,
          "material": 1,
          "mode": 4
        }
      ]
    },
    {
      "name": "Airspeeder_Window_0",
      "primitives": [
        {
          "attributes": {
            "NORMAL": 9,
            "POSITION": 8,
            "TEXCOORD_0": 10
          },
          "indices": 11,
          "material": 2,
          "mode": 4
        }
      ]
    },
    {
      "name": "Airspeeder_Chrome_0",
      "primitives": [
        {
          "attributes": {
            "NORMAL": 13,
            "POSITION": 12,
            "TEXCOORD_0": 14
          },
          "indices": 15,
          "material": 3,
          "mode": 4
        }
      ]
    },
    {
      "name": "Airspeeder_BrakeLights_0",
      "primitives": [
        {
          "attributes": {
            "NORMAL": 17,
            "POSITION": 16,
            "TEXCOORD_0": 18
          },
          "indices": 19,
          "material": 4,
          "mode": 4
        }
      ]
    },
    {
      "name": "Airspeeder_Headlights_0",
      "primitives": [
        {
          "attributes": {
            "NORMAL": 21,
            "POSITION": 20,
            "TEXCOORD_0": 22
          },
          "indices": 23,
          "material": 5,
          "mode": 4
        }
      ]
    },
    {
      "name": "Airspeeder_Engine_0",
      "primitives": [
        {
          "attributes": {
            "NORMAL": 25,
            "POSITION": 24,
            "TEXCOORD_0": 26
          },
          "indices": 27,
          "material": 6,
          "mode": 4
        }
      ]
    },
    {
      "name": "Airspeeder_Seat_0",
      "primitives": [
        {
          "attributes": {
            "NORMAL": 29,
            "POSITION": 28,
            "TEXCOORD_0": 30
          },
          "indices": 31,
          "material": 7,
          "mode": 4
        }
      ]
    }
  ],
  "nodes": [
    {
      "children": [
        1
      ],
      "matrix": [
        0.24495741724967957,
        0.0,
        0.0,
        0.0,
        0.0,
        5.439147293666115e-17,
        -0.24495741724967957,
        0.0,
        0.0,
        0.24495741724967957,
        5.439147293666115e-17,
        0.0,
        0.0,
        0.0,
        0.0,
        1.0
      ],
      "name": "Sketchfab_model"
    },
    {
      "children": [
        2
      ],
      "matrix": [
        0.009999999776482582,
        0.0,
        0.0,
        0.0,
        0.0,
        0.0,
        0.009999999776482582,
        0.0,
        0.0,
        -0.009999999776482582,
        0.0,
        0.0,
        0.0,
        0.0,
        0.0,
        1.0
      ],
      "name": "d9a627a57c334980bc0e8a3d02a490a6.fbx"
    },
    {
      "children": [
        3
      ],
      "name": "RootNode"
    },
    {
      "children": [
        4,
        5,
        6,
        7,
        8,
        9,
        10,
        11
      ],
      "matrix": [
        50.0,
        0.0,
        0.0,
        0.0,
        0.0,
        -15.749999999999826,
        -2.3781838357909342e-06,
        0.0,
        0.0,
        7.5497899548918544e-06,
        -49.999999999999446,
        0.0,
        -6.210976425791159e-05,
        6.863218307495117,
        -898.6862182617188,
        1.0
      ],
      "name": "Airspeeder"
    },
    {
      "mesh": 0,
      "name": "Airspeeder_Body_0"
    },
    {
      "mesh": 1,
      "name": "Airspeeder_PlateBackground_0"
    },
    {
      "mesh": 2,
      "name": "Airspeeder_Window_0"
    },
    {
      "mesh": 3,
      "name": "Airspeeder_Chrome_0"
    },
    {
      "mesh": 4,
      "name": "Airspeeder_BrakeLights_0"
    },
    {
      "mesh": 5,
      "name": "Airspeeder_Headlights_0"
    },
    {
      "mesh": 6,
      "name": "Airspeeder_Engine_0"
    },
    {
      "mesh": 7,
      "name": "Airspeeder_Seat_0"
    }
  ],
  "scene": 0,
  "scenes": [
    {
      "name": "Sketchfab_Scene",
      "nodes": [
        0
      ]
    }
  ]
}
