<svg xmlns="http://www.w3.org/2000/svg" viewBox="0 0 512 512" fill="none">
  <!-- Kawaii Cat Face -->
  <circle cx="256" cy="256" r="248" fill="#FFC0CB" stroke="#FF99A4" stroke-width="16"/>
  
  <!-- Ears -->
  <path d="M130 120C90 90 80 60 70 40C120 60 150 100 160 120" fill="#FF99A4" stroke="#FF99A4" stroke-width="16" stroke-linecap="round"/>
  <path d="M382 120C422 90 432 60 442 40C392 60 362 100 352 120" fill="#FF99A4" stroke="#FF99A4" stroke-width="16" stroke-linecap="round"/>
  
  <!-- Eyes -->
  <circle cx="176" cy="240" r="32" fill="#FFFFFF" stroke="#333333" stroke-width="10"/>
  <circle cx="336" cy="240" r="32" fill="#FFFFFF" stroke="#333333" stroke-width="10"/>
  
  <!-- Eye pupils with cute shine -->
  <circle cx="176" cy="240" r="16" fill="#333333"/>
  <circle cx="336" cy="240" r="16" fill="#333333"/>
  <circle cx="166" cy="230" r="6" fill="#FFFFFF"/>
  <circle cx="326" cy="230" r="6" fill="#FFFFFF"/>
  
  <!-- Nose and mouth -->
  <path d="M256 280 L236 300 Q256 320 276 300 Z" fill="#FF99A4"/>
  <path d="M220 320 Q256 360 292 320" stroke="#333333" stroke-width="10" stroke-linecap="round" fill="none"/>
  
  <!-- Whiskers -->
  <line x1="100" y1="280" x2="180" y2="290" stroke="#333333" stroke-width="6" stroke-linecap="round"/>
  <line x1="100" y1="320" x2="180" y2="310" stroke="#333333" stroke-width="6" stroke-linecap="round"/>
  <line x1="412" y1="280" x2="332" y2="290" stroke="#333333" stroke-width="6" stroke-linecap="round"/>
  <line x1="412" y1="320" x2="332" y2="310" stroke="#333333" stroke-width="6" stroke-linecap="round"/>
</svg>